<svg width="269.88001098632816" height="162.0880421187586" viewBox="0 0 350 210.20754569496233" class="looka-1j8o68f"><defs id="SvgjsDefs1792"></defs><g id="SvgjsG1793" featurekey="symbolFeature-0" transform="matrix(1.4554296250893084,0,0,1.4554296250893084,102.77687405377658,0)" fill="#384259"><path xmlns="http://www.w3.org/2000/svg" fill-rule="evenodd" clip-rule="evenodd" d="M71.567,15.476L59.975,0L19.417,29.243H35.77L71.567,15.476z M82.479,29.243  l-4.625-12.508L43.142,29.243H82.479z M84.913,27.716h6.64c1.899,0,3.121,1.48,3.121,3.373v21.198l2.992-1.495l-0.03-21.297  c0-1.9-2.656-4.831-4.556-4.831h-9.379l1.06,2.854L84.913,27.716z M94.674,76.706v17.43c1.732-0.184,3.045-1.739,3.045-3.518  l-0.023-15.423L94.674,76.706z M7.939,27.716h0.435h8.349l4.258-3.052h-9.966l0.069-0.023c-7.372-0.007-9.624,0.077-9.555,9.249  v62.04c0,1.901,1.893,3.519,3.793,3.519h83.179c1.899,0,3.808-1.565,3.808-3.457l-0.007-16.566l-0.367,0.183h-7.631  c-6.746,0-12.211-5.464-12.211-12.21s5.465-12.209,12.211-12.209h7.631l0.358-0.184l-0.008-20.788c0-1.9-1.885-3.449-3.784-3.449  H11.008c-0.275-0.007-0.528-0.023-0.756-0.061H8.374c-0.839,0-1.526-0.688-1.526-1.526C6.848,28.486,7.306,27.899,7.939,27.716z   M91.935,58.24h-7.631c-5.061,0-9.158,4.098-9.158,9.157c0,5.059,4.098,9.157,9.158,9.157h7.631l5.738-4.815L97.65,53.547  L91.935,58.24z M79.725,67.397c0-2.525,2.053-4.577,4.579-4.577c2.525,0,4.578,2.052,4.578,4.577c0,2.526-2.053,4.579-4.578,4.579  C81.777,71.977,79.725,69.924,79.725,67.397z"></path></g><g id="SvgjsG1794" featurekey="nameFeature-0" transform="matrix(1.6145549834258515,0,0,1.6145549834258515,-4.456169814158229,145.23785045192912)" fill="#384259"><path d="M8.04 17.04 l0 3.44 l9.6 0 c1.36 0 2.44 0.72 2.44 2.28 s-1.08 2.28 -2.44 2.28 l-9.6 0 l0 10.4 l10 0 c1.36 0 2.44 0.72 2.44 2.28 s-1.08 2.28 -2.44 2.28 l-11.8 0 c-2.64 0 -3.48 -1.36 -3.48 -3.44 l0 -21.36 c0 -1.52 0.84 -2.72 2.2 -2.72 l13.08 0 c1.36 0 2.44 0.72 2.44 2.28 s-1.08 2.28 -2.44 2.28 l-10 0 z M35.162000000000006 20.12 c2 -1.52 3.96 -3.36 5.04 -5.72 c0.64 -1.32 1.16 -2.04 2.68 -2.04 s2.52 1.04 2.56 2.28 c0.08 3.52 -3.96 6.44 -6.44 8.36 c0.96 0.76 2.2 2.12 3.36 3.52 c2.52 3.08 4 6.76 4.32 10.52 c0.12 1.56 -0.76 3.08 -2.68 3.08 c-1.84 0 -2.56 -1.12 -2.76 -3.12 c-0.48 -4.2 -2.68 -8.52 -6.08 -11.2 c-3.4 2.68 -5.6 7 -6.08 11.2 c-0.2 2 -0.92 3.12 -2.76 3.12 c-1.92 0 -2.8 -1.52 -2.68 -3.08 c0.32 -3.76 1.8 -7.44 4.32 -10.52 c1.16 -1.4 2.4 -2.76 3.36 -3.52 c-2.48 -1.92 -6.52 -4.84 -6.44 -8.36 c0.04 -1.24 1.04 -2.28 2.56 -2.28 s2.04 0.72 2.68 2.04 c1.08 2.36 3.04 4.2 5.04 5.72 z M50.88400000000001 37.4 l0 -22.76 c0 -1.28 0.8 -2.16 2.52 -2.16 l10.6 0 c4.16 0 6.32 2.32 6.32 5.68 c0 5.2 -4.4 8.24 -14.4 10.96 l0 8.28 c0 1.52 -0.8 2.72 -2.52 2.72 s-2.52 -1.2 -2.52 -2.72 z M55.92400000000001 16.8 l0 7.52 c2.64 -0.56 9.36 -3.36 9.36 -5.8 c0 -1.08 -0.56 -1.72 -3.52 -1.72 l-5.84 0 z M79.126 17.04 l0 3.44 l9.6 0 c1.36 0 2.44 0.72 2.44 2.28 s-1.08 2.28 -2.44 2.28 l-9.6 0 l0 10.4 l10 0 c1.36 0 2.44 0.72 2.44 2.28 s-1.08 2.28 -2.44 2.28 l-11.8 0 c-2.64 0 -3.48 -1.36 -3.48 -3.44 l0 -21.36 c0 -1.52 0.84 -2.72 2.2 -2.72 l13.08 0 c1.36 0 2.44 0.72 2.44 2.28 s-1.08 2.28 -2.44 2.28 l-10 0 z M115.92800000000001 15.120000000000001 l0 22.24 c0 1.56 -0.8 2.76 -2.52 2.76 s-2.52 -1.2 -2.52 -2.76 l0 -12.68 c-3.28 -0.36 -6.64 -2.64 -9.28 -5.72 l0 18.4 c0 1.56 -0.8 2.76 -2.52 2.76 s-2.52 -1.2 -2.52 -2.76 l0 -22.24 c0.08 -1.56 1.04 -2.76 3.24 -2.76 c3.92 0 4.36 5.88 11.08 7.76 l0 -5 c0 -1.56 0.8 -2.76 2.52 -2.76 s2.52 1.2 2.52 2.76 z M137.17000000000002 17.28 l-9.24 0 c-1.24 0 -1.92 0.56 -1.92 1.6 c0 3.64 16.12 0.28 16.12 11.44 c0 5.04 -3.8 9.68 -10.64 9.68 l-8.6 0 c-1.44 0 -2.6 -0.76 -2.6 -2.4 s1.16 -2.4 2.6 -2.4 l6.56 0 c5.2 0 7.4 -1.28 7.4 -4.68 c0 -7.32 -16.12 -1.48 -16.12 -11.56 c0 -4.16 3.16 -6.48 8.16 -6.48 l8.28 0 c1.44 0 2.6 0.76 2.6 2.4 s-1.16 2.4 -2.6 2.4 z M152.412 17.04 l0 3.44 l9.6 0 c1.36 0 2.44 0.72 2.44 2.28 s-1.08 2.28 -2.44 2.28 l-9.6 0 l0 10.4 l10 0 c1.36 0 2.44 0.72 2.44 2.28 s-1.08 2.28 -2.44 2.28 l-11.8 0 c-2.64 0 -3.48 -1.36 -3.48 -3.44 l0 -21.36 c0 -1.52 0.84 -2.72 2.2 -2.72 l13.08 0 c1.36 0 2.44 0.72 2.44 2.28 s-1.08 2.28 -2.44 2.28 l-10 0 z M176.214 37.36 c0 1.6 -0.92 2.88 -2.8 2.88 s-2.8 -1.28 -2.8 -2.88 s0.92 -2.88 2.8 -2.88 s2.8 1.28 2.8 2.88 z M188.336 15.079999999999998 l0 22.32 c0 1.52 -0.8 2.72 -2.52 2.72 s-2.52 -1.2 -2.52 -2.72 l0 -22.32 c0 -1.52 0.8 -2.72 2.52 -2.72 s2.52 1.2 2.52 2.72 z M219.538 26.240000000000002 c0 8.96 -6.16 14 -13 14 s-13 -5.04 -13 -14 s6.16 -14 13 -14 s13 5.04 13 14 z M213.858 26.240000000000002 c0 -5.28 -2.96 -9.44 -7.32 -9.44 s-7.32 4.16 -7.32 9.44 s2.96 9.44 7.32 9.44 s7.32 -4.16 7.32 -9.44 z"></path></g></svg>