<svg width="213.12473277169022" height="207.80376281738282" viewBox="0 0 270 263.2590560045322" class="looka-1j8o68f"><defs id="SvgjsDefs1613"></defs><g id="SvgjsG1614" featurekey="rootContainer" transform="matrix(2.5809711372993354,0,0,2.5809711372993354,0.030434266996216174,0)" fill="#393e46"><path xmlns="http://www.w3.org/2000/svg" d="M50.8 102h5.8l1.8-.2 1.7-.3h1.7l1.9-.3 1.8-.4.9-.2.9-.3 1.7-.6 2-.8a54 54 0 0 0 15.3-9.4l1.4-1.2.7-.5.6-.4 1-.5.8-.5 1.5-1.2 1.5-1.5.8-1 .9-1.1a50.9 50.9 0 0 0 3.9-5.8 34.8 34.8 0 0 0 1.6-3.1l.2-.4.2-.4.3-.8.3-.9.2-.4v-.4l.4-1.2.2-.6v-.3h.1v-.2l.7-2.5c.2-.9.4-1.7.5-2.6a25.4 25.4 0 0 0 .2-2.6v-3.1c0-.3 0-1 .1-1.5v-2.1a21.3 21.3 0 0 0 .2-2.6v-2.6c0-.9-.1-1.1-.1-1.6l-.2-1.5c-.1-1-.4-2-.5-3s-.2-1-.3-1.4l-.3-1.4-.3-1.4v-1.7l-.4-1.4-.2-.7-.2-.7-.4-1.4-.5-1.4-.4-1-.5-1-1-2.1a40.7 40.7 0 0 1-1.8-4.1 3.6 3.6 0 0 0-.8-1.2l-.7-.6-.2-.3-.3-.5a25.7 25.7 0 0 0-1.6-2.3l-.8-1.1-.9-1.1-.4-.5-.2-.3-.2-.2h-.1l-.9-1-.5-.5-.5-.5-.9-1.1-1.1-1a47.9 47.9 0 0 0-3.8-3l-.1-.5-1.3-.9A29 29 0 0 0 72 .4h-3.1a.8.8 0 0 0-.6 1.2A3.9 3.9 0 0 0 69.9 3l-.6.3-.4-.2a.9.9 0 0 0 0-.3c-.1-.5-.2-.9-1.3-1.3L65.3.7l-.6-.2h-.6L62.8 0l-1.3 1.2A48.5 48.5 0 0 0 39 2.4 31.1 31.1 0 0 0 31.4 4h-.5l-.5.2-1 .4-1 .5-.9.6-1.8 1.5-.8.6-.7.7c-1 .9-1.9 1.9-2.8 2.8L20 12.8l-1.4 1.5-.5.5-.5.5-1.1 1a55.1 55.1 0 0 0-7 7l.2-.5.6-1.1.6-1.1.6-1.1.6-1.2.6-1.2 1.2-2.4.4-.8.3-.6a1 1 0 0 0 0-.8 3.7 3.7 0 0 1-.2-1.2 17.1 17.1 0 0 0-2.1 1.1l-1.5 1.1-.8.6-.7.7-.8 1-.5 1-.5 1-.2.5-.3.5-.3.6-.4.8-.4.8-.7 1.7-.5 1.3-.5 1.3v.7l-.2.6-.3 1.3v.2h-.4v.3l-.2.7-.3 1.4-.2.7-.2.7-.4 1.7-.4 1.9-.2.9v2.8l-.6 1.9a38.3 38.3 0 0 0-.1 4.1 52.7 52.7 0 0 0-.7 8.7 5.2 5.2 0 0 0 0 .7c.5 3 .8 6 1.5 9l.4 1.8.5 1.8a18.3 18.3 0 0 0 .6 1.7l.4.8.4.8.9 1.7.5.8.5.8.5.8.5.8L7.8 77c1.4 2 2.9 4 4.5 5.9a35.6 35.6 0 0 0 2.6 2.7l.7.6.3.3.4.3 1.5 1.1 1 1a34 34 0 0 0 8.2 6.2l1.4.7 1.5.7.7.3.8.3 1.5.6.9.4.8.4.8.4 1 .4 1.9.7 1.9.6 1.6.4 1.6.4 1.6.3h5.7z"></path></g><g id="SvgjsG1615" featurekey="symbolFeature-0" transform="matrix(0.8316740714796048,0,0,0.8316740714796048,93.72964231644376,60)" fill="#ffffff"><path xmlns="http://www.w3.org/2000/svg" fill-rule="evenodd" clip-rule="evenodd" d="M71.567,15.476L59.975,0L19.417,29.243H35.77L71.567,15.476z M82.479,29.243  l-4.625-12.508L43.142,29.243H82.479z M84.913,27.716h6.64c1.899,0,3.121,1.48,3.121,3.373v21.198l2.992-1.495l-0.03-21.297  c0-1.9-2.656-4.831-4.556-4.831h-9.379l1.06,2.854L84.913,27.716z M94.674,76.706v17.43c1.732-0.184,3.045-1.739,3.045-3.518  l-0.023-15.423L94.674,76.706z M7.939,27.716h0.435h8.349l4.258-3.052h-9.966l0.069-0.023c-7.372-0.007-9.624,0.077-9.555,9.249  v62.04c0,1.901,1.893,3.519,3.793,3.519h83.179c1.899,0,3.808-1.565,3.808-3.457l-0.007-16.566l-0.367,0.183h-7.631  c-6.746,0-12.211-5.464-12.211-12.21s5.465-12.209,12.211-12.209h7.631l0.358-0.184l-0.008-20.788c0-1.9-1.885-3.449-3.784-3.449  H11.008c-0.275-0.007-0.528-0.023-0.756-0.061H8.374c-0.839,0-1.526-0.688-1.526-1.526C6.848,28.486,7.306,27.899,7.939,27.716z   M91.935,58.24h-7.631c-5.061,0-9.158,4.098-9.158,9.157c0,5.059,4.098,9.157,9.158,9.157h7.631l5.738-4.815L97.65,53.547  L91.935,58.24z M79.725,67.397c0-2.525,2.053-4.577,4.579-4.577c2.525,0,4.578,2.052,4.578,4.577c0,2.526-2.053,4.579-4.578,4.579  C81.777,71.977,79.725,69.924,79.725,67.397z"></path></g><g id="SvgjsG1616" featurekey="nameFeature-0" transform="matrix(1.350042693534582,0,0,1.350042693534582,32.92841822514376,148.85155318975808)" fill="#ffffff"><path d="M13.6 11.920000000000002 c0 0.04 0.04 0.04 0.04 0.08 c0.16 0.68 0.2 1.4 0.2 2.16 l-0.04 0.04 c-0.12 0.64 -0.08 0.76 -0.8 0.8 c-0.24 0.04 -0.52 0.04 -0.8 0.04 l-6.28 0 c-0.24 0 -0.48 0 -0.72 0.04 c-0.2 0 -0.28 0.08 -0.28 0.24 l0 0.72 s0.04 0.48 0.04 0.72 l0 1.32 c0 0.56 0 1.08 0.08 1.64 l0 0.6 l0 5.12 c0 0.24 -0.04 0.48 0.04 0.76 c0.12 -0.04 0.2 0 0.28 -0.04 c0.92 -0.32 1.84 -0.48 2.76 -0.52 c0.64 -0.08 1.32 -0.12 1.96 -0.24 c0.32 -0.08 0.64 -0.12 1 -0.12 c0.36 -0.04 0.64 -0.08 0.96 -0.28 c0.08 -0.04 0.24 -0.04 0.32 0.08 c0.16 0.2 0.36 0.36 0.6 0.52 c0.36 0.24 0.56 0.88 0.28 1.44 c-0.32 0.6 -0.48 0.84 -1.32 1 c-0.28 0.04 -0.52 0.08 -0.8 0.12 c-0.84 0.12 -1.68 0.24 -2.52 0.32 c-0.12 0.04 -0.28 0.04 -0.4 0.04 c-1.04 0.08 -2 0.36 -2.92 0.8 c-0.16 0.08 -0.24 0.2 -0.24 0.4 l0 1.08 l0 4 c0 0.2 0 0.4 0.04 0.64 c0 0.08 0.04 0.12 0.12 0.16 l0.64 0 l6.32 0 l0.48 0 c0.72 0.04 0.64 -0.04 0.76 0.64 c0.08 0.56 0.08 1.08 0.08 1.6 l0 0.16 c-0.2 0.6 -0.12 0.72 -0.84 0.72 c-1.08 0.04 -2.16 0.04 -3.28 0 l-2.32 0 c-0.96 0 -1.96 0 -2.96 -0.04 c-0.56 -0.04 -1.08 -0.12 -1.64 -0.2 c-0.12 0 -0.2 -0.12 -0.24 -0.24 c-0.32 -0.88 -0.32 -0.88 -0.32 -1.84 c-0.04 -1.08 -0.04 -2.2 -0.04 -3.32 l0 -8.04 c0.04 -2.4 0.08 -4.84 0.08 -7.24 c0 -0.8 0.08 -1.6 0.08 -2.4 c0 -0.16 0.04 -0.36 -0.12 -0.52 c-0.08 -0.32 -0.2 -0.6 -0.28 -0.88 c-0.08 -0.64 -0.12 -1.28 0.08 -1.88 c0.08 -0.16 0.16 -0.24 0.32 -0.24 l0.52 0 l10.44 0 c0.2 0 0.44 -0.04 0.64 0.04 z M23.686 20.48 c0.12 0 0.2 -0.12 0.24 -0.2 c0.12 -0.28 0.32 -0.52 0.48 -0.72 c0.4 -0.56 0.68 -1.16 0.84 -1.84 c0.2 -0.76 0.32 -1.52 0.44 -2.28 l0.12 -0.6 l0.48 -1.2 c0.08 -0.2 0.16 -0.4 0.28 -0.6 c0.2 -0.28 0.32 -0.6 0.48 -0.96 c0.08 -0.28 0.16 -0.52 0.28 -0.8 c0.04 -0.12 0.08 -0.2 0.16 -0.32 s0.2 -0.16 0.32 -0.16 c0.16 0 0.32 0 0.48 0.04 c0.6 0.2 1.24 0.36 1.76 0.76 c0.4 0.28 0.4 0.24 0.32 0.68 c-0.04 0.12 -0.08 0.2 -0.08 0.28 c-0.12 0.48 -0.2 1 -0.44 1.48 c-0.24 0.44 -0.36 0.92 -0.64 1.4 c-0.2 0.32 -0.24 0.72 -0.32 1.08 c-0.12 0.48 -0.2 0.96 -0.32 1.44 c-0.2 0.92 -0.48 1.8 -0.92 2.64 c-0.2 0.4 -0.44 0.8 -0.68 1.16 c-0.32 0.48 -0.6 1 -0.76 1.56 c-0.24 0.64 -0.44 1.32 -0.64 1.96 c-0.08 0.16 -0.08 0.32 -0.04 0.48 c0.12 0.36 0.28 0.72 0.36 1.08 c0.24 0.92 0.56 1.8 0.84 2.68 c0.08 0.24 0.16 0.48 0.28 0.68 c0.04 0.08 0.08 0.12 0.12 0.2 c0.28 0.72 0.6 1.48 0.88 2.24 c0.04 0.12 0.08 0.24 0.16 0.36 c0.16 0.32 0.28 0.64 0.4 1 c0.04 0.12 0.12 0.24 0.2 0.32 c0.16 0.2 0.28 0.44 0.32 0.72 c0.04 0.16 0.08 0.32 0.2 0.44 c0.24 0.28 0.28 0.64 0.4 0.96 c-0.04 0.44 0.16 0.8 0.44 1.12 c0.04 0.04 0.12 0.12 0.08 0.24 c-0.08 0.2 0 0.36 0.04 0.56 l0 0.16 c-0.16 0.16 -0.36 0.32 -0.44 0.6 c0 0.08 -0.08 0.12 -0.16 0.16 c-0.28 0.08 -0.48 0.28 -0.76 0.28 c-0.04 0 -0.12 0.04 -0.16 0.08 c-0.28 0.16 -0.56 0.16 -0.84 0.16 c-0.36 0 -0.6 -0.16 -0.8 -0.44 c0 0 0 -0.04 -0.04 -0.04 c-0.24 -0.52 -0.48 -1.04 -0.64 -1.6 c-0.2 -0.6 -0.4 -1.2 -0.68 -1.76 c-0.08 -0.16 -0.2 -0.28 -0.28 -0.44 c-0.04 -0.16 -0.04 -0.36 -0.08 -0.52 c-0.04 -0.2 -0.12 -0.36 -0.16 -0.52 c-0.4 -1 -0.8 -2 -1.24 -3 c-0.04 -0.16 -0.08 -0.32 -0.28 -0.44 c-0.08 0.16 -0.2 0.36 -0.28 0.52 c-0.36 0.96 -0.76 1.92 -1.12 2.88 c-0.12 0.24 -0.24 0.52 -0.24 0.8 c0 0.16 -0.04 0.32 -0.16 0.44 c-0.12 0.16 -0.2 0.36 -0.28 0.52 c-0.2 0.56 -0.44 1.08 -0.6 1.64 c-0.12 0.56 -0.4 1.04 -0.68 1.52 c-0.16 0.28 -0.44 0.48 -0.76 0.44 l-0.28 0 c-0.12 0.04 -0.24 0 -0.32 -0.04 c-0.24 -0.12 -0.44 -0.24 -0.68 -0.28 c-0.2 0 -0.32 -0.24 -0.56 -0.24 c-0.04 0 -0.08 -0.04 -0.08 -0.08 c-0.04 -0.28 -0.28 -0.44 -0.44 -0.68 l0 -0.16 c0.08 -0.16 0.08 -0.32 0.04 -0.48 c-0.04 -0.08 0 -0.16 0.04 -0.24 c0.08 -0.08 0.12 -0.2 0.2 -0.28 c0.16 -0.2 0.28 -0.44 0.28 -0.68 c0 -0.16 0.08 -0.36 0.12 -0.52 c0 -0.2 0.04 -0.36 0.16 -0.48 c0.2 -0.24 0.28 -0.48 0.32 -0.72 c0.04 -0.2 0.12 -0.36 0.24 -0.48 c0.16 -0.2 0.28 -0.4 0.32 -0.64 c0.04 -0.12 0.08 -0.24 0.12 -0.32 c0.24 -0.44 0.36 -0.88 0.56 -1.32 c0.2 -0.48 0.44 -0.96 0.6 -1.48 c0 -0.08 0.04 -0.12 0.08 -0.2 c0.52 -1 0.8 -2.04 1.12 -3.12 c0.12 -0.48 0.24 -0.96 0.44 -1.44 c0.12 -0.24 0.12 -0.48 0 -0.76 c-0.16 -0.52 -0.32 -1.04 -0.48 -1.52 c-0.24 -0.72 -0.52 -1.36 -0.92 -1.96 c-0.84 -1.24 -1.4 -2.6 -1.64 -4.08 c-0.08 -0.44 -0.2 -0.92 -0.28 -1.36 c-0.12 -0.36 -0.2 -0.72 -0.4 -1.08 c-0.12 -0.16 -0.2 -0.4 -0.28 -0.6 c-0.08 -0.16 -0.16 -0.36 -0.24 -0.56 c-0.2 -0.36 -0.32 -0.72 -0.36 -1.12 c-0.04 -0.2 -0.08 -0.36 -0.12 -0.52 c-0.04 -0.12 -0.08 -0.24 -0.08 -0.32 c0 -0.12 0.04 -0.24 0.12 -0.32 c0.56 -0.4 1.2 -0.64 1.88 -0.84 c0.2 -0.08 0.4 -0.08 0.6 -0.08 c0.16 0 0.24 0.08 0.32 0.2 c0.08 0.08 0.12 0.24 0.2 0.36 c0.08 0.24 0.16 0.52 0.28 0.8 c0.12 0.32 0.24 0.64 0.44 0.92 c0.12 0.16 0.2 0.4 0.28 0.6 c0.16 0.4 0.32 0.84 0.48 1.24 c0.04 0.12 0.08 0.2 0.08 0.32 c0.12 0.76 0.28 1.56 0.44 2.32 c0.16 0.72 0.44 1.4 0.88 2 c0.24 0.32 0.44 0.64 0.64 0.92 z M34.892 25.16 l0 -11.2 c0 -0.28 0 -0.56 0.04 -0.84 c0.04 -0.16 0.04 -0.32 0.04 -0.52 l0 -0.64 c0 -0.08 0.08 -0.16 0.16 -0.2 c0.12 -0.04 0.24 -0.08 0.36 -0.08 c0.12 -0.04 0.24 -0.08 0.32 -0.12 c0.12 -0.12 0.24 -0.16 0.4 -0.16 s0.28 0 0.4 -0.04 c0.4 0 0.8 0 1.16 -0.08 c0.24 -0.04 0.48 0 0.72 0.04 c0.32 0.08 0.68 0.08 1.04 0 c0.28 -0.04 0.56 -0.04 0.84 0 c0.2 0.08 0.44 0 0.64 0 c0.16 0 0.32 -0.04 0.44 0 c0.24 0.04 0.48 0.04 0.72 0 c0.08 -0.04 0.16 0 0.28 0 c0.2 0.04 0.4 0.12 0.6 0.16 c0.32 0.04 0.6 0.12 0.84 0.36 c0.04 0.04 0.08 0.08 0.16 0.08 c0.2 0.08 0.4 0.2 0.52 0.36 c0.4 0.2 0.68 0.52 1.04 0.8 c0.04 0.04 0.08 0.04 0.08 0.08 c0.2 0.36 0.52 0.6 0.72 0.92 c0.12 0.16 0.24 0.32 0.24 0.52 c0.04 0.12 0.08 0.2 0.16 0.32 c0 0.04 0.08 0.12 0.08 0.16 c0 0.44 0.2 0.84 0.24 1.28 c0.08 0.64 0.24 1.24 0.48 1.8 c0.08 0.2 0.12 0.36 0.16 0.52 c0 0.12 0 0.24 0.04 0.4 c0 0.16 0 0.28 0.04 0.44 c0.04 0.24 0.12 0.52 0.16 0.76 s-0.04 0.48 0 0.72 c0.04 0.28 0.04 0.6 -0.08 0.88 c-0.08 0.32 -0.12 0.6 -0.08 0.92 c0 0.28 -0.04 0.52 -0.2 0.76 c-0.16 0.2 -0.16 0.48 -0.12 0.76 c0.04 0.4 -0.04 0.76 -0.2 1.12 c-0.12 0.32 -0.16 0.64 -0.2 0.96 c-0.04 0.08 -0.04 0.16 -0.08 0.24 c-0.12 0.24 -0.24 0.48 -0.32 0.72 c-0.04 0.08 -0.12 0.12 -0.16 0.2 c-0.08 0.08 -0.16 0.16 -0.2 0.24 c-0.16 0.36 -0.4 0.6 -0.64 0.84 c-0.12 0.12 -0.2 0.28 -0.36 0.36 c-0.12 0.12 -0.28 0.16 -0.44 0.24 c-0.2 0.04 -0.36 0.16 -0.52 0.28 c-0.08 0.12 -0.2 0.2 -0.28 0.28 c-0.12 0.08 -0.2 0.16 -0.36 0.12 c-0.32 0 -0.6 0.08 -0.88 0.2 c-0.4 0.16 -0.84 0.24 -1.28 0.24 c-0.28 -0.04 -0.52 0.04 -0.76 0.08 l-0.32 0 c-0.24 -0.08 -0.48 -0.08 -0.72 -0.08 c-0.32 0.04 -0.64 0 -0.96 -0.08 c-0.16 -0.04 -0.32 -0.04 -0.48 -0.04 c-0.08 0 -0.2 0.12 -0.2 0.24 l0 0.6 l0 4.8 c0 0.72 -0.04 1.44 -0.16 2.16 c-0.08 0.36 -0.24 0.64 -0.4 0.96 c0 0.04 -0.08 0.12 -0.12 0.12 c-0.2 0.08 -0.4 0.04 -0.56 0.2 l-0.04 0 c-0.36 0 -0.72 0.04 -1.08 0 c-0.2 0 -0.32 -0.12 -0.44 -0.32 c-0.16 -0.4 -0.32 -0.76 -0.36 -1.2 c-0.08 -0.52 -0.12 -1.04 -0.12 -1.56 l0 -11.08 l0 0 z M38.172 20.76 l0 1.16 l0 4.24 l0 0.6 c0 0.12 0.12 0.2 0.2 0.2 c0.2 0.04 0.4 0.04 0.6 0.04 c0.16 0 0.28 0 0.44 0.04 c0.44 0.04 0.84 0.04 1.24 0.04 c0.68 0 1.28 -0.12 1.92 -0.4 c0.44 -0.16 0.8 -0.48 1.08 -0.92 c0.24 -0.4 0.44 -0.88 0.48 -1.4 c0.08 -0.56 0.16 -1.16 0.28 -1.72 c0.16 -0.6 0.2 -1.2 0.2 -1.8 c0 -0.36 -0.04 -0.72 -0.12 -1.04 c-0.12 -0.48 -0.24 -0.96 -0.32 -1.48 c-0.16 -0.72 -0.4 -1.44 -0.6 -2.2 c-0.04 -0.16 -0.12 -0.28 -0.24 -0.36 c-0.28 -0.24 -0.52 -0.52 -0.8 -0.76 c-0.24 -0.2 -0.52 -0.32 -0.84 -0.32 c-0.52 -0.04 -1.04 -0.16 -1.56 -0.04 l-0.44 0 l-1.08 0 l-0.24 0 s-0.2 0.12 -0.2 0.2 l0 0.64 l0 5.28 z M62.858000000000004 11.920000000000002 c0 0.04 0.04 0.04 0.04 0.08 c0.16 0.68 0.2 1.4 0.2 2.16 l-0.04 0.04 c-0.12 0.64 -0.08 0.76 -0.8 0.8 c-0.24 0.04 -0.52 0.04 -0.8 0.04 l-6.28 0 c-0.24 0 -0.48 0 -0.72 0.04 c-0.2 0 -0.28 0.08 -0.28 0.24 l0 0.72 s0.04 0.48 0.04 0.72 l0 1.32 c0 0.56 0 1.08 0.08 1.64 l0 0.6 l0 5.12 c0 0.24 -0.04 0.48 0.04 0.76 c0.12 -0.04 0.2 0 0.28 -0.04 c0.92 -0.32 1.84 -0.48 2.76 -0.52 c0.64 -0.08 1.32 -0.12 1.96 -0.24 c0.32 -0.08 0.64 -0.12 1 -0.12 c0.36 -0.04 0.64 -0.08 0.96 -0.28 c0.08 -0.04 0.24 -0.04 0.32 0.08 c0.16 0.2 0.36 0.36 0.6 0.52 c0.36 0.24 0.56 0.88 0.28 1.44 c-0.32 0.6 -0.48 0.84 -1.32 1 c-0.28 0.04 -0.52 0.08 -0.8 0.12 c-0.84 0.12 -1.68 0.24 -2.52 0.32 c-0.12 0.04 -0.28 0.04 -0.4 0.04 c-1.04 0.08 -2 0.36 -2.92 0.8 c-0.16 0.08 -0.24 0.2 -0.24 0.4 l0 1.08 l0 4 c0 0.2 0 0.4 0.04 0.64 c0 0.08 0.04 0.12 0.12 0.16 l0.64 0 l6.32 0 l0.48 0 c0.72 0.04 0.64 -0.04 0.76 0.64 c0.08 0.56 0.08 1.08 0.08 1.6 l0 0.16 c-0.2 0.6 -0.12 0.72 -0.84 0.72 c-1.08 0.04 -2.16 0.04 -3.28 0 l-2.32 0 c-0.96 0 -1.96 0 -2.96 -0.04 c-0.56 -0.04 -1.08 -0.12 -1.64 -0.2 c-0.12 0 -0.2 -0.12 -0.24 -0.24 c-0.32 -0.88 -0.32 -0.88 -0.32 -1.84 c-0.04 -1.08 -0.04 -2.2 -0.04 -3.32 l0 -8.04 c0.04 -2.4 0.08 -4.84 0.08 -7.24 c0 -0.8 0.08 -1.6 0.08 -2.4 c0 -0.16 0.04 -0.36 -0.12 -0.52 c-0.08 -0.32 -0.2 -0.6 -0.28 -0.88 c-0.08 -0.64 -0.12 -1.28 0.08 -1.88 c0.08 -0.16 0.16 -0.24 0.32 -0.24 l0.52 0 l10.44 0 c0.2 0 0.44 -0.04 0.64 0.04 z M67.464 11.48 c0.6 -0.28 1.2 -0.4 1.84 -0.4 c0.16 0 0.36 0 0.56 0.04 c0.16 0.04 0.24 0.12 0.28 0.28 c0.08 0.16 0.12 0.28 0.16 0.44 c0.08 0.36 0.12 0.72 0.2 1.08 c0.04 0.12 0.08 0.24 0.12 0.4 c0.08 0.12 0.16 0.24 0.2 0.36 c0.16 0.68 0.36 1.32 0.52 2 c0.12 0.4 0.24 0.8 0.44 1.2 c0.28 0.56 0.56 1.12 0.84 1.72 c0.24 0.52 0.52 1.04 0.76 1.6 c0.32 0.64 0.6 1.32 0.92 2 c0.12 0.28 0.32 0.56 0.48 0.88 c0.52 0.92 0.92 1.88 1.2 2.92 c0.04 0.2 0.12 0.4 0.2 0.6 c0.44 1.04 0.88 2.04 1.32 3.04 c0.16 0.32 0.32 0.6 0.52 0.88 c0.24 0.32 0.48 0.68 0.68 1.04 c0.12 0.24 0.28 0.4 0.4 0.6 c0.04 0.04 0.08 0.04 0.12 0.08 c0.04 0 0.12 -0.08 0.12 -0.16 l0 -0.72 l0 -19.72 l0 -0.72 c0 -0.08 0.04 -0.16 0.08 -0.24 c0.76 -0.2 1.52 -0.2 2.28 -0.2 c0.08 0 0.16 0.04 0.28 0.04 c0.36 0.12 0.48 0.12 0.52 0.6 c0.08 0.88 0.04 1.76 0.04 2.64 l0 2.84 c0.04 0.28 0 0.56 0 0.84 c0 0.56 0.04 1.12 0 1.72 c0 0.56 0.04 1.16 0 1.76 l0 1.68 l0 1.8 l0 2.2 c0 0.8 -0.04 1.64 -0.04 2.44 c0 0.36 0 0.68 -0.04 1 c0 1.44 0 2.84 -0.04 4.28 c0 0.52 -0.04 1.04 -0.08 1.56 l0 0.28 c-0.04 0.52 0.12 0.96 0.6 1.24 c0.24 0.12 0.32 0.28 0.32 0.52 c0.04 0.12 0.04 0.28 0.04 0.4 c0 0.16 -0.08 0.24 -0.16 0.32 c-0.28 0.2 -0.48 0.52 -0.68 0.8 c-0.08 0.16 -0.16 0.28 -0.28 0.4 c-0.24 0.2 -0.48 0.32 -0.76 0.28 c-0.12 -0.04 -0.2 0 -0.28 0 c-0.28 0 -0.48 -0.12 -0.64 -0.32 c-0.2 -0.24 -0.44 -0.48 -0.64 -0.72 c-0.16 -0.16 -0.28 -0.36 -0.36 -0.52 c-0.28 -0.6 -0.64 -1.2 -1 -1.72 c-0.2 -0.28 -0.4 -0.56 -0.6 -0.8 c-0.28 -0.24 -0.52 -0.56 -0.72 -0.88 c-0.16 -0.2 -0.32 -0.4 -0.44 -0.64 c-0.12 -0.16 -0.24 -0.32 -0.36 -0.52 c-0.2 -0.44 -0.44 -0.84 -0.72 -1.2 s-0.52 -0.76 -0.72 -1.16 c-0.32 -0.56 -0.6 -1.12 -0.84 -1.72 c-0.12 -0.44 -0.32 -0.84 -0.52 -1.24 c-0.36 -0.76 -0.68 -1.56 -0.92 -2.36 c-0.12 -0.44 -0.32 -0.84 -0.52 -1.24 c-0.48 -0.88 -0.92 -1.72 -1.28 -2.64 c-0.04 -0.12 -0.12 -0.24 -0.2 -0.36 l-0.04 0 l-0.08 0 l0 0.56 l0 7.48 c-0.04 2 -0.04 4.04 -0.08 6.08 c0 0.76 -0.04 1.52 -0.16 2.28 c-0.04 0.16 -0.04 0.32 -0.04 0.48 c-0.04 0.2 -0.16 0.36 -0.36 0.44 c-0.52 0.2 -1.04 0.24 -1.6 0.16 c-0.16 0 -0.36 -0.08 -0.52 -0.12 c-0.12 -0.04 -0.16 -0.12 -0.16 -0.24 c-0.04 -0.12 -0.04 -0.24 -0.08 -0.36 c0 -0.16 0 -0.32 -0.04 -0.48 c-0.08 -0.64 -0.12 -1.28 -0.16 -1.92 l0 -0.96 c-0.04 -0.4 -0.04 -0.8 -0.04 -1.24 l0 -20.28 c0 -0.44 0.04 -0.88 -0.08 -1.32 c-0.04 -0.08 0 -0.2 0.04 -0.28 c0.12 -0.28 0.16 -0.56 0.2 -0.88 z M90.23 21.2 c0.4 0.56 0.84 1.08 1.32 1.6 c0.36 0.44 0.8 0.72 1.28 0.96 c0.36 0.12 0.68 0.28 1 0.44 c0.56 0.36 1.04 0.72 1.48 1.16 c0.4 0.4 0.8 0.84 1.24 1.16 c0.12 0.12 0.2 0.24 0.36 0.36 l0.32 0 c0.12 0.04 0.2 0.08 0.28 0.16 c0.28 0.28 0.48 0.6 0.56 1 c0.04 0.32 0.12 0.64 0.24 0.96 c0.12 0.4 0.16 0.84 0.2 1.28 l0 1.16 c0 0.2 0 0.44 0.12 0.64 c0.04 0.08 0.04 0.2 0.04 0.32 c0.04 0.24 0.04 0.48 0.08 0.68 c0.08 0.56 0.08 1.08 -0.04 1.64 c-0.04 0.08 -0.04 0.2 -0.04 0.32 c-0.04 0.08 -0.04 0.2 -0.08 0.32 c-0.16 0.4 -0.24 0.84 -0.4 1.28 c0 0.04 -0.04 0.12 -0.08 0.16 c-0.2 0.28 -0.36 0.6 -0.56 0.88 c-0.08 0.12 -0.16 0.24 -0.28 0.36 c-0.32 0.08 -0.64 0.2 -0.96 0.4 c-0.08 0.08 -0.2 0.12 -0.36 0.12 c-0.12 0 -0.28 0.04 -0.44 0.04 c-0.24 0.04 -0.4 0.12 -0.56 0.32 s-0.36 0.28 -0.6 0.32 l-0.2 0 c-0.24 0.04 -0.52 0.12 -0.76 0.12 c-0.28 0 -0.52 -0.08 -0.76 -0.12 l-0.4 0 c-0.24 0 -0.48 -0.04 -0.68 -0.16 c-0.36 -0.16 -0.76 -0.28 -1.12 -0.36 c-0.28 -0.08 -0.52 -0.2 -0.76 -0.36 s-0.48 -0.32 -0.72 -0.44 c-0.6 -0.32 -1 -0.88 -1.36 -1.48 c-0.04 -0.2 -0.12 -0.4 -0.12 -0.6 c-0.04 -0.4 -0.16 -0.76 -0.2 -1.16 c-0.12 -0.6 -0.24 -1.2 -0.2 -1.8 c0.04 -0.2 0.04 -0.4 0.08 -0.6 c0.04 -0.28 0.08 -0.56 0.08 -0.84 c0 -0.16 0 -0.32 0.04 -0.48 c0.12 -0.28 0.08 -0.52 0.04 -0.76 c-0.08 -0.24 -0.12 -0.44 -0.2 -0.68 c0.08 -0.2 0.16 -0.4 0.24 -0.64 c0.04 -0.12 0.16 -0.2 0.28 -0.2 l0.48 0 c0.44 -0.04 0.92 -0.04 1.36 -0.04 c0.2 0 0.32 0.08 0.44 0.2 c0.08 0.08 0.12 0.16 0.12 0.24 c-0.04 0.24 0 0.44 0.2 0.6 c0.08 0.08 0.12 0.2 0.08 0.36 c-0.04 0.08 -0.08 0.2 -0.12 0.32 c-0.08 0.2 -0.12 0.44 -0.08 0.68 c0.08 0.24 0.04 0.52 0.08 0.76 c0 0.28 -0.04 0.52 0.08 0.8 c0.04 0.12 0.04 0.24 0 0.36 c-0.12 0.36 -0.08 0.68 -0.04 1.04 c0 0.16 0.08 0.32 0.24 0.44 c0.36 0.32 0.72 0.6 1.2 0.76 c0.12 0.04 0.28 0.12 0.4 0.16 c0.2 0.08 0.4 0.12 0.64 0.12 c0.16 0 0.36 0 0.52 0.08 c0.56 0.12 1.08 0.04 1.6 -0.16 c0.2 -0.04 0.4 -0.16 0.6 -0.24 c0.16 -0.44 0.32 -0.84 0.28 -1.32 l0 -2.84 l0 -0.4 c0 -0.28 -0.08 -0.52 -0.36 -0.64 c-0.08 -0.08 -0.16 -0.16 -0.2 -0.28 c-0.08 -0.36 -0.32 -0.64 -0.6 -0.88 c-0.52 -0.48 -1 -0.96 -1.52 -1.44 c-0.12 -0.08 -0.2 -0.2 -0.36 -0.24 c-0.16 0 -0.36 -0.08 -0.48 -0.16 c-0.28 -0.16 -0.56 -0.24 -0.88 -0.32 c-0.8 -0.2 -1.52 -0.56 -2.12 -1.12 c-0.52 -0.48 -0.84 -1.04 -1.16 -1.56 c-0.16 -0.24 -0.28 -0.52 -0.4 -0.76 c-0.2 -0.36 -0.24 -0.8 -0.36 -1.16 c-0.04 -0.08 0 -0.16 0 -0.2 c0.08 -0.28 0.12 -0.52 -0.04 -0.76 c-0.04 -0.48 -0.16 -0.92 -0.12 -1.4 c0.04 -0.44 0.08 -0.88 0.04 -1.32 l0 -0.16 c0.12 -0.32 0.12 -0.6 0.12 -0.92 l0 -1.88 c-0.04 -0.4 0.08 -0.76 0.32 -1.08 c0.08 -0.12 0.12 -0.2 0.2 -0.28 c0.28 -0.36 0.6 -0.76 0.92 -1.12 c0.04 -0.08 0.12 -0.12 0.24 -0.2 c0.36 -0.16 0.64 -0.4 0.96 -0.64 c0.24 -0.2 0.52 -0.36 0.84 -0.48 c0.28 -0.08 0.52 -0.24 0.8 -0.24 c0.12 0 0.24 -0.04 0.4 -0.04 c0.32 0 0.64 -0.04 0.96 -0.08 c0.2 -0.04 0.44 0 0.64 0.04 c0.36 0.04 0.68 0.08 1.04 0.08 c0.24 0.04 0.52 0.04 0.76 0.12 c0.2 0.04 0.4 0.16 0.6 0.28 c0.32 0.2 0.56 0.52 0.76 0.84 c0.16 0.24 0.28 0.48 0.48 0.68 c0.12 0.16 0.24 0.32 0.28 0.52 c0.04 0.12 0.08 0.24 0.16 0.36 c0.12 0.36 0.24 0.72 0.28 1.12 c0.04 0.16 0.08 0.32 0.08 0.44 c0.04 0.32 0.16 0.6 0.4 0.8 c0.12 0.08 0.12 0.16 0.12 0.28 c0 0.48 0 0.96 -0.04 1.44 c-0.08 0.36 -0.08 0.72 -0.08 1.08 c0 0.52 -0.04 1 -0.16 1.48 c-0.04 0.2 -0.04 0.36 0 0.52 c0.04 0.12 0.04 0.2 0.04 0.32 c0 0.08 0 0.12 -0.04 0.2 c-0.16 0.16 -0.32 0.28 -0.52 0.36 c-0.44 0.12 -0.88 0.2 -1.36 0.28 c-0.04 0.04 -0.12 0 -0.16 -0.04 c-0.12 -0.12 -0.28 -0.28 -0.4 -0.44 c0 -0.04 -0.04 -0.12 -0.04 -0.16 c-0.04 -0.28 -0.08 -0.52 -0.08 -0.8 c0.04 -0.36 0 -0.72 0 -1.08 c0 -0.28 0.04 -0.56 -0.04 -0.84 c-0.04 -0.04 -0.04 -0.08 -0.04 -0.12 c0.08 -0.72 -0.12 -1.44 -0.28 -2.12 c0 -0.04 0 -0.08 -0.04 -0.12 c-0.2 -0.36 -0.36 -0.8 -0.68 -1.12 c-0.2 -0.24 -0.44 -0.48 -0.68 -0.68 c-0.28 -0.24 -0.6 -0.36 -0.88 -0.52 l-0.2 0 c-0.44 0 -0.84 0.16 -1.24 0.36 c-0.08 0.04 -0.12 0.12 -0.2 0.16 l-0.56 0.56 s-0.4 0.4 -0.44 0.68 c0 0.12 -0.04 0.2 -0.04 0.28 c-0.04 0.08 -0.08 0.2 -0.04 0.32 c0.04 0.32 -0.16 0.68 -0.12 1 l0 2.88 c0 0.16 0.04 0.32 0.04 0.52 z M113.236 11.920000000000002 c0 0.04 0.04 0.04 0.04 0.08 c0.16 0.68 0.2 1.4 0.2 2.16 l-0.04 0.04 c-0.12 0.64 -0.08 0.76 -0.8 0.8 c-0.24 0.04 -0.52 0.04 -0.8 0.04 l-6.28 0 c-0.24 0 -0.48 0 -0.72 0.04 c-0.2 0 -0.28 0.08 -0.28 0.24 l0 0.72 s0.04 0.48 0.04 0.72 l0 1.32 c0 0.56 0 1.08 0.08 1.64 l0 0.6 l0 5.12 c0 0.24 -0.04 0.48 0.04 0.76 c0.12 -0.04 0.2 0 0.28 -0.04 c0.92 -0.32 1.84 -0.48 2.76 -0.52 c0.64 -0.08 1.32 -0.12 1.96 -0.24 c0.32 -0.08 0.64 -0.12 1 -0.12 c0.36 -0.04 0.64 -0.08 0.96 -0.28 c0.08 -0.04 0.24 -0.04 0.32 0.08 c0.16 0.2 0.36 0.36 0.6 0.52 c0.36 0.24 0.56 0.88 0.28 1.44 c-0.32 0.6 -0.48 0.84 -1.32 1 c-0.28 0.04 -0.52 0.08 -0.8 0.12 c-0.84 0.12 -1.68 0.24 -2.52 0.32 c-0.12 0.04 -0.28 0.04 -0.4 0.04 c-1.04 0.08 -2 0.36 -2.92 0.8 c-0.16 0.08 -0.24 0.2 -0.24 0.4 l0 1.08 l0 4 c0 0.2 0 0.4 0.04 0.64 c0 0.08 0.04 0.12 0.12 0.16 l0.64 0 l6.32 0 l0.48 0 c0.72 0.04 0.64 -0.04 0.76 0.64 c0.08 0.56 0.08 1.08 0.08 1.6 l0 0.16 c-0.2 0.6 -0.12 0.72 -0.84 0.72 c-1.08 0.04 -2.16 0.04 -3.28 0 l-2.32 0 c-0.96 0 -1.96 0 -2.96 -0.04 c-0.56 -0.04 -1.08 -0.12 -1.64 -0.2 c-0.12 0 -0.2 -0.12 -0.24 -0.24 c-0.32 -0.88 -0.32 -0.88 -0.32 -1.84 c-0.04 -1.08 -0.04 -2.2 -0.04 -3.32 l0 -8.04 c0.04 -2.4 0.08 -4.84 0.08 -7.24 c0 -0.8 0.08 -1.6 0.08 -2.4 c0 -0.16 0.04 -0.36 -0.12 -0.52 c-0.08 -0.32 -0.2 -0.6 -0.28 -0.88 c-0.08 -0.64 -0.12 -1.28 0.08 -1.88 c0.08 -0.16 0.16 -0.24 0.32 -0.24 l0.52 0 l10.44 0 c0.2 0 0.44 -0.04 0.64 0.04 z M122.08200000000002 34.56 c0.28 0 0.4 0.04 0.44 0.16 c0.12 0.2 0.28 0.4 0.36 0.64 c0.32 0.8 0.56 1.56 0.84 2.32 c0.04 0.16 0.08 0.28 0.08 0.44 c0.04 0.24 -0.04 0.44 -0.28 0.52 c-0.48 0.2 -0.96 0.4 -1.44 0.56 c-0.52 0.2 -1.08 0.36 -1.6 0.56 c-0.32 0.12 -0.88 -0.12 -1 -0.44 c-0.4 -0.96 -0.76 -1.96 -1.04 -2.96 c-0.04 -0.2 0.04 -0.36 0.16 -0.48 c0.08 -0.08 0.2 -0.2 0.32 -0.24 c0.92 -0.32 1.8 -0.72 2.72 -1 c0.2 -0.04 0.4 -0.08 0.44 -0.08 z M128.728 14.559999999999999 c-1.08 -0.2 -2.2 -0.2 -3.32 -0.16 c-0.44 0.04 -0.56 -0.04 -0.76 -0.44 c-0.2 -0.44 -0.24 -0.92 -0.24 -1.44 c0 -0.56 0.08 -0.68 0.72 -0.92 c0.36 -0.16 0.72 -0.16 1.12 -0.2 c0.84 -0.04 1.68 0 2.52 0.04 l1.24 0 c0.56 -0.04 1.16 -0.04 1.72 -0.04 c0.08 0 0.2 0 0.28 0.04 c0.28 0.12 0.52 0.12 0.8 0.12 l2.16 0 c0.16 0 0.36 -0.04 0.52 0.04 c0 0.04 0.04 0.08 0.08 0.12 c0.04 0.44 0.12 0.84 0.16 1.28 c0 0.2 -0.04 0.4 0 0.56 c0 0.28 -0.08 0.56 -0.16 0.8 c-0.04 0.16 -0.16 0.28 -0.32 0.28 c-0.4 0.04 -0.84 0.04 -1.24 0.04 l-1.64 0 c-0.24 0 -0.36 0.12 -0.36 0.36 l0 0.6 c0 0.4 0.04 0.84 0.04 1.24 l0 6.64 c0 1.56 0.04 3.16 0 4.72 l0 6.76 c0 0.24 0 0.44 0.04 0.68 c0 0.04 0.04 0.08 0.08 0.08 c0.12 0.04 0.24 0.08 0.36 0.08 c0.56 0 1.12 0.16 1.68 0.04 l1.56 0.12 c0.08 0.04 0.16 0.04 0.24 0.04 l0.36 0.24 c0.08 0.08 0.12 0.2 0.16 0.32 c0.16 0.44 0.12 0.88 0.04 1.32 c0 0.04 -0.04 0.08 -0.04 0.12 c-0.2 0.76 -0.28 0.76 -0.96 0.68 c-0.04 0 -0.12 -0.04 -0.16 -0.04 c-0.64 0 -1.28 -0.04 -1.92 -0.08 c-0.44 0 -0.84 0.04 -1.24 0.08 c-0.24 0.04 -0.48 0.04 -0.64 0.24 c-0.4 0.12 -0.8 0.24 -1.2 0.28 c-0.36 0.04 -0.68 -0.12 -1 -0.28 c-0.08 -0.04 -0.16 -0.12 -0.24 -0.16 c-0.12 -0.04 -0.24 -0.08 -0.36 -0.08 c-0.2 0 -0.4 0.04 -0.6 0 c-0.2 0 -0.44 0 -0.64 0.08 c-0.16 0.08 -0.32 0.12 -0.52 0.12 c-0.24 0 -0.52 0.04 -0.8 0.12 c-0.48 0.12 -0.96 0.04 -1.44 -0.12 c-0.16 -0.12 -0.32 -0.28 -0.44 -0.4 c-0.04 -0.04 -0.04 -0.08 -0.04 -0.12 c0 -0.2 0.04 -0.36 0.04 -0.52 c0.04 -0.24 0.08 -0.48 0.04 -0.76 c-0.04 -0.2 0 -0.44 0.08 -0.64 c0.04 -0.24 0.24 -0.44 0.52 -0.48 c0.48 -0.04 1 -0.08 1.48 -0.12 l0.72 -0.12 s0.48 -0.08 0.72 0 c0.2 0.04 0.4 0 0.6 -0.04 c0.32 -0.04 0.36 -0.08 0.36 -0.44 l0 -1.76 c-0.04 -0.92 -0.04 -1.8 -0.04 -2.68 l0 -6.68 c0.04 -1.96 0.04 -3.92 0.08 -5.88 c0 -0.96 0 -1.92 0.08 -2.88 l0 -0.24 c0.04 -0.24 -0.08 -0.4 -0.28 -0.56 z M144.41400000000002 39.72 l-0.36 -0.12 s-0.24 -0.04 -0.32 0 s-0.2 0.04 -0.28 0.04 c-0.6 -0.08 -1.32 -0.24 -1.8 -0.8 c-0.04 0 -0.08 -0.04 -0.12 -0.08 c-0.64 -0.4 -1.04 -1 -1.6 -1.52 c-0.2 -0.16 -0.32 -0.36 -0.44 -0.56 c-0.08 -0.16 -0.16 -0.36 -0.2 -0.52 c-0.12 -0.28 -0.2 -0.56 -0.2 -0.84 c0.04 -0.2 -0.04 -0.4 -0.08 -0.6 c-0.08 -0.28 -0.12 -0.56 -0.2 -0.84 c-0.2 -0.68 -0.28 -1.36 -0.44 -2.04 c-0.08 -0.36 -0.08 -0.72 -0.08 -1.08 c0 -1.24 -0.04 -2.48 -0.04 -3.72 s0.04 -2.48 0.04 -3.76 l0 -1.8 c0.04 -0.28 0 -0.56 -0.16 -0.8 c-0.04 -0.08 -0.04 -0.2 -0.04 -0.32 c0.04 -0.08 0.04 -0.12 0.04 -0.2 c0.08 -0.44 0.08 -0.88 -0.04 -1.32 c-0.04 -0.2 -0.04 -0.4 0 -0.6 c0.08 -0.36 0.12 -0.68 0 -1 l0 -0.28 c0.04 -0.12 0.04 -0.2 0.08 -0.32 c0.12 -0.28 0.16 -0.6 0.16 -0.92 c0 -0.24 0.04 -0.48 0.16 -0.72 c0.2 -0.48 0.52 -0.88 0.72 -1.36 c0.04 -0.08 0.08 -0.16 0.16 -0.2 c0.4 -0.44 0.8 -0.88 1.28 -1.2 c0.32 -0.2 0.6 -0.44 0.92 -0.68 c0.16 -0.16 0.36 -0.24 0.6 -0.28 c0.32 -0.08 0.6 -0.12 0.92 -0.2 c0.16 -0.08 0.32 -0.08 0.44 -0.08 c0.16 -0.04 0.32 -0.04 0.48 -0.08 c0.12 -0.04 0.28 -0.04 0.4 0.04 c0.04 0.04 0.12 0.04 0.16 0.08 c0.2 0.12 0.44 0.16 0.68 0.16 l0.4 0 s0.28 0.04 0.4 0.16 c0.04 0.04 0.08 0.08 0.12 0.08 c0.12 0.16 0.28 0.24 0.44 0.28 c0.44 0.16 0.72 0.44 1 0.8 c0.16 0.24 0.36 0.52 0.6 0.72 c0.08 0.08 0.16 0.2 0.2 0.32 c0.12 0.28 0.24 0.52 0.32 0.84 c0.04 0.2 0.16 0.4 0.24 0.6 c0.12 0.24 0.2 0.52 0.24 0.76 c0 0.36 0.08 0.72 0.16 1.08 c0.08 0.32 0.12 0.68 0.12 1 c-0.04 0.32 0 0.64 0.12 0.92 c0.04 0.12 0.04 0.24 0.04 0.32 c0.04 0.2 0.04 0.4 -0.08 0.52 c-0.08 0.12 -0.08 0.28 -0.08 0.4 l0 0.72 l0 13.24 c0.04 0.6 -0.12 1.2 -0.36 1.76 l-0.84 1.92 c-0.08 0.12 -0.16 0.2 -0.24 0.32 c-0.36 0.52 -0.92 0.84 -1.4 1.2 c-0.2 0.16 -0.4 0.24 -0.64 0.28 c-0.12 0 -0.28 0.04 -0.4 0.04 c-0.4 0 -0.8 0.12 -1.2 0.24 z M141.41400000000002 26.52 l0 4.48 l0 0.68 c0 0.12 0 0.24 0.04 0.32 c0.16 0.28 0.2 0.56 0.24 0.84 c0.04 0.12 0.08 0.28 0.12 0.4 c0.16 0.4 0.32 0.76 0.48 1.16 c0.08 0.16 0.16 0.36 0.24 0.48 c0.28 0.32 0.56 0.64 0.8 0.92 c0.32 0.36 0.76 0.48 1.24 0.44 c0.36 -0.04 0.64 -0.16 0.8 -0.52 c0.04 -0.08 0.04 -0.16 0.08 -0.24 c0 -0.36 0.12 -0.72 0.24 -1.08 c0.08 -0.28 0.16 -0.56 0.16 -0.84 c0 -0.2 0.08 -0.4 0.12 -0.6 c0.24 -0.56 0.32 -1.16 0.36 -1.76 c0 -0.44 0 -0.84 0.04 -1.28 c0 -0.16 0 -0.32 -0.08 -0.48 c-0.04 -0.08 -0.04 -0.2 0 -0.32 c0.12 -0.52 0.08 -1.04 0.04 -1.56 c-0.08 -0.76 -0.04 -1.56 -0.04 -2.32 c0 -1.48 0.04 -2.92 0.04 -4.4 c0.04 -0.24 0.04 -0.44 -0.04 -0.68 c-0.04 -0.08 -0.04 -0.2 -0.04 -0.32 c-0.04 -0.56 -0.12 -1.12 -0.24 -1.68 s-0.24 -1.12 -0.24 -1.72 c0 -0.28 -0.12 -0.56 -0.24 -0.84 c-0.08 -0.16 -0.2 -0.28 -0.28 -0.44 c-0.08 -0.2 -0.24 -0.32 -0.44 -0.4 c-0.08 -0.08 -0.2 -0.12 -0.28 -0.16 c-0.6 -0.2 -1.12 -0.16 -1.6 0.24 c-0.28 0.24 -0.52 0.48 -0.76 0.76 c-0.16 0.12 -0.24 0.32 -0.28 0.52 c-0.08 0.4 -0.16 0.84 -0.24 1.24 l0 0.2 c0 0.2 -0.04 0.4 0 0.6 c0 0.24 -0.16 0.44 -0.2 0.68 l0 0.04 c-0.04 0.52 -0.12 1.04 -0.16 1.56 c-0.04 0.36 -0.04 0.76 0.04 1.12 c0.04 0.12 0.04 0.24 0.04 0.36 c0 1.56 -0.04 3.16 0.04 4.6 z"></path></g></svg>